<svg xmlns="http://www.w3.org/2000/svg" viewBox="0 0 100 125"><switch><g><path d="M64.9 21.3c2.5 1.7 5 3.9 7.5 6.4 2.5 2.5 4.7 5 6.4 7.5l-14 14 5.4 5.4 24-24c4.5-4.5 4.5-11.8 0-16.3l-8.4-8.4c-4.5-4.5-11.8-4.5-16.2 0l-24 24 5.4 5.4 13.9-14zm15.4-10l8.5 8.4c1.5 1.5 1.5 3.9 0 5.4l-4.5 4.5c-1.9-2.5-4-5-6.4-7.5-2.4-2.4-4.9-4.6-7.4-6.4l4.5-4.5c1.3-1.4 3.8-1.4 5.3.1zM9.9 4.5C8.4 3 6 3 4.5 4.5S3 8.4 4.5 9.9l30.4 30.4-23.1 23.2c-.4.5-.8 1-1 1.6L2.7 92.6c-.4 1.4 0 2.8 1 3.8.7.7 1.7 1.1 2.7 1.1.4 0 .7-.1 1.1-.2L35 89.1c.6-.2 1.2-.5 1.6-1L59.7 65l30.4 30.4c.7.7 1.7 1.1 2.7 1.1s2-.4 2.7-1.1c1.5-1.5 1.5-3.9 0-5.4L9.9 4.5zm7.2 66.4c2.1 1.6 4.3 3.4 6.4 5.6 2.1 2.1 4 4.3 5.6 6.4L12 88l5.1-17.1zm18.3 7.6c-1.9-2.5-4-5-6.4-7.5s-4.9-4.6-7.4-6.4l18.8-18.8 13.9 13.9-18.9 18.8z"/></g></switch><text y="115" font-size="5" font-weight="bold" font-family="'Helvetica Neue', Helvetica, Arial-Unicode, Arial, Sans-serif">Created by Adrien Coquet</text><text y="120" font-size="5" font-weight="bold" font-family="'Helvetica Neue', Helvetica, Arial-Unicode, Arial, Sans-serif">from the Noun Project</text></svg>