<svg xmlns="http://www.w3.org/2000/svg" viewBox="0 0 100 125"><switch><g><path d="M77.4 45.2c-2.6-2.4-5.8-4.2-9.2-5.1-1.7-.5-3.5-.7-5.2-.7-1.8 0-3.5.1-5.2.5-3.4.8-6.6 2.4-9.2 4.6 2.8-2 6-3.4 9.4-4 1.7-.3 3.4-.4 5.1-.3 1.7.1 3.4.4 5 .9s3.2 1.1 4.6 2c1.5.8 2.8 1.9 4 3 1.2 1.1 2.3 2.4 3.2 3.8.7 1.1 1.4 2.3 1.9 3.6.2.4.2 1 0 1.4-.5 1.1-1 2.2-1.7 3.2-.9 1.3-1.9 2.4-3 3.4-2.3 2-5.1 3.5-8.1 4.1-3 .7-6.2.6-9.2-.3-3-.8-5.8-2.5-8-4.7 2.1 2.4 4.8 4.2 7.9 5.2 3 1 6.3 1.2 9.5.6 1.6-.3 3.1-.8 4.6-1.5 1.5-.7 2.8-1.6 4.1-2.7 3.2-2.7 4.7-6 5.3-7.5.2-.4.2-.9 0-1.3-.9-2-2.5-5.2-5.8-8.2z"/><ellipse transform="rotate(-23.234 13.425 17.013)" cx="13.4" cy="17" rx="2" ry=".9"/><path d="M33.9 14.4c-.3-.3-.7-.6-1-.9-.7-.5-1.5-.9-2.2-1.4-.7-.5-1.4-.9-2.1-1.4-1.4-1-2.7-2.1-3.9-3.2l-.3-.3-.2.4c-.3.7-.7 1.5-1.2 2.1-.5.7-1 1.3-1.6 1.9-.6.6-1.2 1.1-1.9 1.6s-1.4.9-2.2 1.2c.8-.2 1.6-.6 2.3-1 .4-.2.7-.4 1.1-.7.4-.2.7-.5 1-.8.6-.6 1.2-1.2 1.8-1.9.4-.6.8-1.2 1.1-1.8 1.1 1.1 2.4 2.1 3.6 3 .7.5 1.4 1 2.2 1.4.7.5 1.5.9 2.2 1.3.7.5 1.3 1 1.6 1.7.3.7.4 1.6.3 2.4 0 .4-.1.8-.3 1.2-.1.4-.3.8-.6 1.1-.5.7-1.1 1.3-1.9 1.7.8-.3 1.5-.8 2.1-1.5.3-.3.5-.7.7-1.1.2-.4.3-.8.4-1.3.2-.9.1-1.8-.2-2.7-.2-.3-.5-.7-.8-1z"/><circle cx="24.3" cy="11.9" r="1.4"/><path d="M96.4 53.9c-.7-1.3-1.7-2.3-2.9-2.9l-.1-.1C90.2 40.3 82 32.1 71.4 29c-9.7-2.8-20.3-.9-28.4 5.1-.8.6-1.9 1.7-2.6 2.5-.6.7-1.5 1-2.4.7l-.6-.3-.1-.1c-.5-.4-.7-1-.6-1.6.1-.7.4-1.3 1-1.7 6.7-4.3 9.1-12.9 5.7-20.1-1.7-3.6-4.7-6.4-8.4-7.9s-7.8-1.5-11.5-.1c-.4.1-.6.4-.7.8-.2.8-.7 2.3-1.8 3.4-1 1.1-2.1 1.3-4 1.6-1.3.2-2.9.5-4.9 1.1-2.9.9-4.6 1.4-6.2 3.1-1 1.1-3.2 4-2.1 7.1.6 1.6 1.8 2.6 2.7 3.1.3.2.8.2 1.1 0 .4-.2.6-.6.6-1 0-.9.3-1.7.7-2.3 1.1-1.6 3-1.9 4.3-2.2 1.1-.2 1.8-.1 2.5-.1.8.1 1.5.1 2.8-.1.2 0 .4-.1.6-.1.1 0 .2 0 .2.1s0 .1-.1.2c-1.6 1.1-3.4 1.8-5.3 2.2-1.4.3-2.8.3-4.2.2-.4 0-.8.1-1 .4-.2.3-.3.7-.2 1.1.1.4.3.8.6 1.2.7 1 2.3 2.3 5.6 2.3 2.8 0 4.7-1.2 6.5-2.3 1.7-1.1 3.4-2.2 5.8-2.1.7 0 1.5.1 2.2.4.1 0 .1.1.1.1s0 .1-.1.2C24 27.1 20.1 32 18.2 38c-1.9 5.9-1.7 12.3.5 18v.1c6.6 12.5 18.9 20.7 32.7 22.2l-.7 3.1c0 .2-.2.2-.3.2l-7.4-2c-.3-.1-.5.4-.2.5l3.5 1.8c.3.1.2.5-.1.5l-7.1.2c-.3 0-.4.5 0 .5l8.6 1c.3 0 .3.4.1.5l-5.3 3.2c-.3.2-.1.6.2.5l9.7-3.8 5.6-1.4c.3-.1.3-.5 0-.5l-3.9-.3c-.2 0-.3-.2-.2-.3l.7-3.4H56c4.1 0 8.1-.6 11.8-1.7v9.2c0 .2-.1.3-.3.3l-9.1-.5c-.3 0-.4.4-.1.5l4.9 1.8c.2.1.2.4 0 .5l-8.1 2.9c-.3.1-.2.6.1.5l10.2-1.2c.2 0 .4.2.3.4l-2.3 3.8c-.2.3.2.5.4.4l7.1-5.5s.1 0 .1-.1l10.5-1.4c.3 0 .3-.5 0-.5l-9.8-.9c-.1 0-.2-.1-.2-.3v-11c9.2-3.6 16.9-10.4 21.7-19.3 0 0 0-.1.1-.1.7-.4 1.4-.7 2.2-.8.4-.1.7-.3.8-.6.2-.4.2-.8.1-1.1zm-.9.6s0 .1-.1.1c-.9.2-1.7.5-2.5.9-.2.1-.3.3-.4.4-7.2 13.4-21.1 21.8-36.3 21.8-15.3 0-29.2-8.4-36.4-21.9-4.4-11.4-.1-24.7 10-30.9.4-.2.6-.7.5-1.1-.1-.5-.4-.8-.8-.9-.8-.2-1.6-.4-2.5-.4-2.8-.1-4.6 1.1-6.4 2.3-1.8 1.1-3.5 2.2-6 2.2-2.9 0-4.2-1.1-4.8-1.9-.2-.3-.4-.6-.5-.9V24s.1-.1.2-.1c1.5.2 3 .1 4.5-.2 2-.4 3.9-1.2 5.6-2.3.5-.3.6-.9.4-1.4-.2-.5-.7-.8-1.3-.7-.2 0-.4.1-.5.1-1.1.2-1.8.1-2.6.1-.8-.1-1.5-.1-2.7.1-1.3.2-3.6.7-4.9 2.6-.5.8-.8 1.8-.9 2.8 0 .1-.1.1-.1.2h-.2c-.8-.5-1.8-1.3-2.3-2.6-1-2.7 1-5.2 1.9-6.2 1.3-1.4 2.8-2 5.8-2.9 2-.6 3.5-.9 4.8-1.1 1.9-.3 3.3-.6 4.6-1.8 1.3-1.3 1.9-3 2.1-3.9 0-.1.1-.1.1-.1 7.2-2.7 15.3.6 18.6 7.5 3.2 6.7.9 14.8-5.4 18.9-.8.5-1.4 1.4-1.5 2.4-.1.9.3 1.8 1 2.4l.2.2c.3.2.6.4.9.5 1.3.4 2.6 0 3.4-1 .6-.7 1.7-1.8 2.4-2.4 7.8-5.9 18.1-7.7 27.5-5 10.3 3 18.2 10.9 21.2 21.2.1.3.3.6.6.7 1.1.6 2 1.4 2.5 2.5.4-.1.3-.1.3 0z"/></g></switch><text y="115" font-size="5" font-weight="bold" font-family="'Helvetica Neue', Helvetica, Arial-Unicode, Arial, Sans-serif">Created by Icons Producer</text><text y="120" font-size="5" font-weight="bold" font-family="'Helvetica Neue', Helvetica, Arial-Unicode, Arial, Sans-serif">from the Noun Project</text></svg>