<svg xmlns="http://www.w3.org/2000/svg" viewBox="0 0 64 80"><path d="M52.73 29.77h-9.89a1.5 1.5 0 00-1.5 1.5v.09a15.355 15.355 0 01-6.78-3.45 11.128 11.128 0 01-2.96-8.28c0-1.68-1.83-3.44-3.85-3.69-1.29-.16-4.45.1-5.9 5.87a23.485 23.485 0 00-.25 7.36h-5.94a5.382 5.382 0 00-4.51 2.34c-1.3 1.83-2.34 5.44.05 12.22l2.69 9.7a6.249 6.249 0 006.15 5.07h7.25c2.68 0 9.78-.44 14.05-2.2v.51a1.5 1.5 0 001.5 1.5h9.89a1.5 1.5 0 001.5-1.5V31.27a1.5 1.5 0 00-1.5-1.5zM41.34 52.96c-2.2 1.48-8.92 2.54-14.05 2.54h-7.25a3.252 3.252 0 01-3.21-2.67l-.03-.14-2.72-9.81-.03-.1c-2.17-6.12-1.04-8.71-.45-9.54a2.394 2.394 0 012.06-1.07h7.65a1.472 1.472 0 001.14-.53 1.5 1.5 0 00.34-1.22c-.01-.04-.79-4.82-.03-7.88.56-2.23 1.47-3.59 2.43-3.63a1.76 1.76 0 011.41.8 14.032 14.032 0 003.84 10.32c2.74 2.74 6.83 3.95 8.9 4.42zM25.558 11.24V7a1.5 1.5 0 013 0v4.24a1.5 1.5 0 11-3 0zM33.5 16.4a1.5 1.5 0 01.512-2.058l3.634-2.187a1.5 1.5 0 111.547 2.57l-3.633 2.186a1.5 1.5 0 01-2.06-.511zm-19.09-3.734a1.5 1.5 0 012.058-.512l3.632 2.187a1.5 1.5 0 11-1.547 2.57l-3.635-2.187a1.5 1.5 0 01-.508-2.058z"/><text y="79" font-size="5" font-weight="bold" font-family="'Helvetica Neue', Helvetica, Arial-Unicode, Arial, Sans-serif">Created by The Icon Z</text><text y="84" font-size="5" font-weight="bold" font-family="'Helvetica Neue', Helvetica, Arial-Unicode, Arial, Sans-serif">from the Noun Project</text></svg>