<svg xmlns="http://www.w3.org/2000/svg" viewBox="0 0 100 125"><switch><g><path d="M94.1 14.3l-8.5-8.5c-4.5-4.5-11.8-4.5-16.2 0L11.8 63.5c-.4.4-.8 1-1 1.6L2.7 92.6c-.4 1.3 0 2.8 1 3.8s2.5 1.4 3.8 1L35 89.2c.6-.2 1.2-.5 1.6-1l57.6-57.6c4.4-4.5 4.4-11.8-.1-16.3zM12 88l5.1-17.1c4.3 3.2 8.7 7.7 12 12L12 88zm23.4-9.5c-3.8-5-8.9-10.1-13.9-13.9l43.4-43.4c5 3.5 10.3 8.9 13.9 13.9L35.4 78.5zm53.3-53.4l-4.5 4.5c-3.8-5-8.9-10.1-13.9-13.9l4.5-4.5c1.5-1.5 3.9-1.5 5.4 0l8.5 8.5c1.5 1.5 1.5 4 0 5.4z"/></g></switch><text y="115" font-size="5" font-weight="bold" font-family="'Helvetica Neue', Helvetica, Arial-Unicode, Arial, Sans-serif">Created by Adrien Coquet</text><text y="120" font-size="5" font-weight="bold" font-family="'Helvetica Neue', Helvetica, Arial-Unicode, Arial, Sans-serif">from the Noun Project</text></svg>