<svg xmlns="http://www.w3.org/2000/svg" viewBox="0 0 64 80"><defs><style>.cls-1{fill:none;stroke:#000;stroke-linejoin:round;stroke-width:2px}</style></defs><path class="cls-1" d="M46 11h6a3 3 0 013 3v2H9v-2a3 3 0 013-3h7M51 11V7H13v4M44 11h-2M49 57H15l-4-41h42l-4 41zM22 7V3h20v4M15 57h34v4H15z"/><path class="cls-1" d="M30 22h4v29h-4zM40 22h4v29h-4zM20 22h4v29h-4z"/><text y="79" font-size="5" font-weight="bold" font-family="'Helvetica Neue', Helvetica, Arial-Unicode, Arial, Sans-serif">Created by Nhor</text><text y="84" font-size="5" font-weight="bold" font-family="'Helvetica Neue', Helvetica, Arial-Unicode, Arial, Sans-serif">from the Noun Project</text></svg>