<?xml version="1.0" standalone="no"?>
<!DOCTYPE svg PUBLIC "-//W3C//DTD SVG 20010904//EN"
 "http://www.w3.org/TR/2001/REC-SVG-20010904/DTD/svg10.dtd">
<svg version="1.0" xmlns="http://www.w3.org/2000/svg"
 width="164.000000pt" height="164.000000pt" viewBox="0 0 164.000000 164.000000"
 preserveAspectRatio="xMidYMid meet">
<metadata>
Created by potrace 1.14, written by Peter Selinger 2001-2017
</metadata>
<g transform="translate(0.000000,164.000000) scale(0.100000,-0.100000)"
fill="#000000" stroke="none">
<path d="M0 820 l0 -820 304 0 304 0 -10 42 c-18 71 -14 244 6 323 40 154 131
300 238 383 32 25 58 47 58 50 0 3 -22 2 -48 -1 -31 -4 -86 -25 -151 -59 -94
-49 -107 -53 -169 -52 -69 0 -100 11 -140 47 -17 16 -25 18 -34 9 -32 -32 -97
12 -124 84 -15 40 -16 53 -5 92 12 44 47 102 81 130 35 30 125 64 232 88 129
28 154 43 185 104 29 57 35 62 86 77 135 40 316 -8 420 -111 95 -95 131 -192
125 -336 -3 -88 -7 -104 -41 -173 -29 -58 -53 -90 -102 -134 -75 -67 -82 -79
-59 -104 23 -25 36 -24 65 7 68 73 260 181 368 206 l51 11 0 479 0 478 -820 0
-820 0 0 -820z"/>
<path d="M900 1272 c-14 -1 -41 -5 -60 -8 l-35 -6 43 -39 c24 -21 81 -63 125
-92 111 -74 122 -86 121 -152 -1 -56 -26 -105 -65 -125 -36 -20 -42 1 -10 34
40 41 50 95 27 131 -9 14 -49 46 -89 72 -40 25 -89 59 -109 75 -22 17 -43 26
-50 22 -8 -5 -4 -10 10 -15 12 -5 27 -20 34 -34 9 -21 8 -28 -7 -45 -23 -26
-60 -26 -78 0 -14 20 -15 20 -72 -15 -33 -19 -62 -35 -67 -35 -10 0 -11 30 0
30 4 0 18 9 32 20 25 19 24 19 -65 0 -181 -39 -259 -79 -295 -150 -26 -51 -25
-94 2 -132 l21 -30 21 43 c37 78 114 109 265 109 74 0 78 -1 89 -25 11 -23 9
-29 -14 -50 -36 -33 -124 -65 -201 -72 -60 -6 -63 -7 -47 -24 8 -9 37 -22 62
-29 60 -14 116 2 215 62 66 39 78 43 153 46 65 3 84 1 97 -13 28 -27 20 -52
-26 -84 -117 -80 -223 -232 -262 -376 -22 -85 -29 -237 -13 -305 l13 -55 488
-3 487 -2 0 160 0 160 -57 -25 c-31 -14 -70 -34 -88 -45 -38 -23 -45 -25 -45
-7 0 15 79 69 143 97 l47 21 0 134 0 134 -52 -15 c-99 -28 -235 -102 -301
-164 -72 -67 -102 -79 -146 -56 -38 20 -51 44 -51 91 0 30 7 42 37 68 77 65
117 112 145 173 108 232 -38 504 -292 541 -30 5 -66 7 -80 5z m-340 -275 c0
-43 -102 -79 -117 -40 -10 25 40 63 83 63 29 0 34 -3 34 -23z"/>
<path d="M477 876 c-27 -7 -54 -19 -60 -26 -10 -10 -1 -11 43 -7 30 3 73 11
95 18 34 10 37 13 20 20 -27 10 -42 10 -98 -5z"/>
</g>
</svg>
